<?xml version="1.0" encoding="UTF-8"?>
<svg id="Layer_1" data-name="Layer 1" xmlns="http://www.w3.org/2000/svg" xmlns:xlink="http://www.w3.org/1999/xlink" viewBox="0 0 773.55 137.78">
  <defs>
    <style>
      .cls-1 {
        fill: url(#linear-gradient-3);
      }

      .cls-2 {
        fill: url(#linear-gradient-2);
      }

      .cls-3 {
        fill: url(#linear-gradient);
      }
    </style>
    <linearGradient id="linear-gradient" x1="434.76" y1="52.47" x2="784.88" y2="54.73" gradientUnits="userSpaceOnUse">
      <stop offset="0" stop-color="#449b73"/>
      <stop offset=".1" stop-color="#3f926e"/>
      <stop offset=".25" stop-color="#347d62"/>
      <stop offset=".44" stop-color="#21594d"/>
      <stop offset=".53" stop-color="#174643"/>
      <stop offset=".59" stop-color="#135d59"/>
      <stop offset=".7" stop-color="#0d827c"/>
      <stop offset=".81" stop-color="#089d95"/>
      <stop offset=".9" stop-color="#05ada4"/>
      <stop offset=".97" stop-color="#05b3aa"/>
    </linearGradient>
    <linearGradient id="linear-gradient-2" x1="434.58" y1="80.69" x2="784.7" y2="82.95" xlink:href="#linear-gradient"/>
    <linearGradient id="linear-gradient-3" x1="434.7" y1="62.63" x2="784.81" y2="64.89" xlink:href="#linear-gradient"/>
  </defs>
  <path d="M0,52.46C0,23.72,22.51,0,51.86,0c16.88,0,33.3,8.21,41.21,23.72l-12.62,7.3c-6.08-10.49-16.73-16.42-29.2-16.42-20.07,0-35.28,16.88-35.28,38.17s15.21,38.32,35.89,38.32c12.17,0,22.05-4.71,26.92-10.49v-24.48h15.05v29.8c-7,10.19-22.05,19.46-41.97,19.46C22.66,105.38,0,81.81,0,52.46Z"/>
  <path d="M112.68,103.56v-44.4c0-18.1,10.34-31.63,29.81-31.63,4.71,0,9.58.91,13.38,2.74v14.9c-3.65-2.13-7.91-3.19-12.01-3.19-10.04,0-16.12,6.84-16.12,17.79v43.8h-15.05Z"/>
  <path d="M162.25,65.85c0-21.44,15.36-38.93,37.71-38.93s36.5,16.27,36.5,37.1v6.08h-59.61c1.67,12.77,11.4,21.75,24.79,21.75,9.12,0,17.34-3.95,21.75-12.17l11.56,5.93c-6.54,12.77-18.55,19.62-33.15,19.62-22.66,0-39.54-16.42-39.54-39.39ZM221.41,60.37c-.61-11.86-9.28-19.92-21.59-19.92s-20.83,8.82-22.35,19.92h43.95Z"/>
  <path d="M249.69,65.85c0-21.44,15.36-38.93,37.71-38.93s36.5,16.27,36.5,37.1v6.08h-59.61c1.67,12.77,11.41,21.75,24.79,21.75,9.12,0,17.34-3.95,21.75-12.17l11.56,5.93c-6.54,12.77-18.55,19.62-33.15,19.62-22.66,0-39.54-16.42-39.54-39.39ZM308.85,60.37c-.61-11.86-9.28-19.92-21.59-19.92s-20.83,8.82-22.35,19.92h43.95Z"/>
  <path d="M356.9,67.52v36.04h-15.05v-37.56c0-21.75,12.93-38.78,36.95-38.78s37.56,17.03,37.56,38.63v37.71h-15.05v-35.89c0-13.99-7.6-26-22.51-26s-21.9,12.01-21.9,25.85Z"/>
  <path class="cls-3" d="M458.02,89.26h50.64v14.29h-51.86c-10.34,0-14.29-5.32-14.29-13.99V1.67h15.51v87.59Z"/>
  <path class="cls-2" d="M694.32,137.78v-71.62c0-22.2,17.18-38.93,39.69-38.93s39.54,17.64,39.54,38.93c0,22.51-16.27,39.23-38.93,39.23-10.04,0-19.16-4.41-25.24-11.1v43.49h-15.05ZM758.5,66.3c0-13.69-10.64-24.79-24.48-24.79s-24.64,11.1-24.64,24.79,10.64,24.94,24.64,24.94,24.48-11.41,24.48-24.94Z"/>
  <path class="cls-1" d="M685.13,63.71v.05c-.03,21.98-17.86,39.8-39.86,39.8-11.36,0-21.64-4.76-28.88-12.39-.24-.21-.45-.45-.66-.66l-23.94-23.12-22.03-21.32-.09-.09c-4.52-4.46-10.67-7.23-17.55-7.23-13.77,0-24.96,11.18-24.96,24.96s11.19,24.93,24.96,24.93c13.03,0,23.73-9.98,24.84-22.73l12.51,11.73c-5.63,15.13-20.22,25.92-37.35,25.92-22.03,0-39.88-17.84-39.88-39.85s17.85-39.88,39.88-39.88c10.13,0,19.33,3.76,26.38,9.97l2.14,2.02,24.96,23.76,22.46,21.31c.06.06.15.15.21.21,4.37,4.28,10.37,6.91,17,6.91,13.4,0,24.27-10.86,24.3-24.25v-.05c0-13.45-10.88-24.33-24.3-24.33s-23.36,9.95-24.26,22.55l-12.97-12.57c5.76-14.95,20.26-25.53,37.23-25.53,22.01,0,39.86,17.84,39.86,39.88Z"/>
</svg>